<?xml version="1.0" encoding="utf-8"?>
<!-- Generator: Adobe Illustrator 16.0.4, SVG Export Plug-In . SVG Version: 6.00 Build 0)  -->
<!DOCTYPE svg PUBLIC "-//W3C//DTD SVG 1.1//EN" "http://www.w3.org/Graphics/SVG/1.1/DTD/svg11.dtd">
<svg version="1.1" id="Layer_1" xmlns="http://www.w3.org/2000/svg" xmlns:xlink="http://www.w3.org/1999/xlink" x="0px" y="0px"
	 width="266.264px" height="764.312px" viewBox="0 0 266.264 764.312" enable-background="new 0 0 266.264 764.312"
	 xml:space="preserve">
<g id="body">
	<path id="outline" fill="#DCDCDC" stroke="#000000" stroke-miterlimit="10" d="M135.387,2.046
		c18.104-0.849,35.216,11.031,39.883,28.851c0.707,6.364,1.415,12.728,2.122,19.093c1.132,0.282,2.545,0.707,3.96,1.838
		c4.525,3.394,4.103,9.475,3.96,11.031c-0.282,2.97-1.839,5.657-4.949,11.032c-4.81,8.486-7.497,9.475-8.77,9.758
		c-2.546,0.566-3.253-0.565-4.95,0c-5.656,1.98-4.524,17.255-3.96,25.882c0.566,7.496,0.85,11.314,2.546,14.85
		c3.112,6.506,8.345,10.041,16.265,15.416c1.697,1.273,7.92,5.374,18.951,10.183c6.364,2.687,12.305,4.667,22.205,8.062
		c3.536,1.131,17.113,6.223,24.891,20.083c5.234,9.476,5.374,18.386,5.092,22.487c0,14.992-0.142,18.103-0.142,18.103
		c0,6.223-0.424,12.728-1.131,19.517c0.283,5.515,0.707,13.577,1.556,23.194c0.284,4.384,1.699,20.224,4.81,43.277
		c1.979,15.416,1.838,13.436,3.817,26.306c1.979,12.728,3.535,26.73,4.243,42.004c0.707,13.577,0.564,26.307,0,38.043
		c0,3.396-0.142,6.932-0.565,10.749c-0.99,7.639-2.546,14.284-4.385,19.801c0,0-10.323,18.103-23.193,15.415c0,0-2.83,0-2.688-3.253
		l-4.103-1.839c0,0-0.85-5.231,1.979-7.92c2.687-2.688,6.082-4.102,6.082-4.102l3.96-4.243l1.272-5.799l0.425-9.759l-1.133-3.254
		l-3.11,2.121l-1.838,5.094l-3.396,7.354l-3.678,2.688l-7.495-1.133l1.272-12.162c0,0,8.628-12.869,8.485-13.294
		c-0.143-0.426-1.415-9.76,3.11-15.559l4.103-4.102L236.65,369.9l-17.254-37.618l-7.213-39.035l0.142-22.628l-2.264-14.426
		c-1.98,3.677-4.102,8.485-5.798,14.001c-1.979,6.93-2.829,13.153-3.111,18.103c0.141,12.87,0.849,27.296,2.828,42.853
		c1.698,12.446,3.82,23.901,6.224,34.367c1.13,11.172,1.556,23.477,1.272,36.771c-0.849,30.831-6.222,57.279-12.445,78.352
		c-6.789,16.267-9.899,30.268-11.456,40.166c-2.121,14.001-2.121,25.315-2.121,35.356c0,12.445,0.707,11.738,1.697,38.045
		c0.565,15.982,0.849,23.196,0,30.973c-0.707,7.071-1.414,14.001-2.121,21.072l-7.354,17.82l-8.77,21.922l-3.11,10.324
		l-1.414,23.335l-1.557,3.961l9.191,12.729l3.253,5.232l8.486,4.523l3.96,4.526l-0.283,4.384l-5.375,3.111
		c0,0-5.092,2.404-5.656,2.404c-0.567,0-4.81-1.697-4.81-1.697l-9.053-0.143l-6.646,0.989l-4.95-1.979l-8.628,0.849
		c0,0-6.93,0.565-8.627-3.678l2.265-15.698l-2.265-19.8c1.557-13.577,3.254-27.011,4.81-40.448l-1.556-33.378l-3.254-13.859v-17.396
		l5.093-17.82l0.85-11.598c-1.271-7.778-2.547-15.415-3.818-23.193h-5.359c-1.271,7.778-2.547,15.415-3.818,23.193l0.85,11.598
		l5.093,17.82v17.396l-3.254,13.859l-1.556,33.378c1.556,13.438,3.253,26.871,4.81,40.448l-2.265,19.8l2.265,15.698
		c-1.697,4.243-8.627,3.678-8.627,3.678l-8.628-0.849l-4.95,1.979l-6.646-0.989l-9.053,0.143c0,0-4.242,1.697-4.81,1.697
		c-0.564,0-5.656-2.404-5.656-2.404l-5.375-3.111l-0.283-4.384l3.96-4.526l8.486-4.523l3.253-5.232l9.191-12.729l-1.557-3.961
		l-1.414-23.335l-3.11-10.324l-8.77-21.922l-7.354-17.82c-0.707-7.071-1.414-14.001-2.121-21.072c-0.849-7.776-0.565-14.99,0-30.973
		c0.99-26.307,1.697-25.6,1.697-38.045c0-10.041,0-21.355-2.121-35.356c-1.557-9.898-4.667-23.899-11.456-40.166
		c-6.224-21.072-11.597-47.521-12.445-78.352c-0.283-13.294,0.143-25.599,1.272-36.771c2.403-10.466,4.525-21.921,6.224-34.367
		c1.979-15.557,2.688-29.983,2.828-42.853c-0.282-4.95-1.132-11.173-3.111-18.103c-1.696-5.516-3.817-10.324-5.798-14.001
		l-2.264,14.426l0.142,22.628l-7.213,39.035L29.613,369.9l-4.242,17.961l4.103,4.102c4.525,5.799,3.253,15.133,3.11,15.559
		c-0.143,0.425,8.485,13.294,8.485,13.294l1.272,12.162l-7.495,1.133l-3.678-2.688l-3.396-7.354l-1.838-5.094l-3.11-2.121
		l-1.133,3.254l0.425,9.759l1.272,5.799l3.96,4.243c0,0,3.396,1.414,6.082,4.102c2.829,2.688,1.979,7.92,1.979,7.92l-4.103,1.839
		c0.143,3.253-2.688,3.253-2.688,3.253c-12.87,2.688-23.193-15.415-23.193-15.415c-1.839-5.517-3.395-12.162-4.385-19.801
		c-0.424-3.817-0.565-7.354-0.565-10.749c-0.564-11.736-0.707-24.467,0-38.043c0.708-15.274,2.264-29.276,4.243-42.004
		c1.979-12.87,1.838-10.89,3.817-26.306c3.11-23.053,4.525-38.893,4.81-43.277c0.849-9.617,1.272-17.679,1.556-23.194
		c-0.707-6.789-1.131-13.294-1.131-19.517c0,0-0.142-3.111-0.142-18.103c-0.282-4.101-0.143-13.011,5.092-22.487
		c7.777-13.86,21.354-18.952,24.891-20.083c9.9-3.395,15.841-5.375,22.205-8.062c11.031-4.809,17.254-8.91,18.951-10.183
		c7.92-5.375,13.152-8.91,16.265-15.416c1.696-3.536,1.979-7.354,2.546-14.85c0.564-8.627,1.696-23.902-3.96-25.882
		c-1.697-0.565-2.404,0.566-4.95,0c-1.272-0.283-3.96-1.272-8.77-9.758c-3.11-5.375-4.667-8.062-4.949-11.032
		c-0.143-1.556-0.565-7.637,3.96-11.031c1.415-1.131,2.828-1.556,3.96-1.838c0.707-6.365,1.415-12.729,2.122-19.093
		c4.667-17.82,21.778-29.7,39.883-28.851H135.387z"/>
	<g id="right">
		<path id="Gastrocnemius_x2F_soleus_R" fill="#DCDCDC" stroke="#000000" stroke-miterlimit="10" d="M84.346,570.844h40.023
			c-0.99,48.51-2.121,96.879-3.111,145.391c-5.375,0.424-10.606,0.707-15.84,1.131C98.347,668.43,91.417,619.637,84.346,570.844z"/>
		<path id="Tibialis_anterior_R" fill="#DCDCDC" stroke="#000000" stroke-miterlimit="10" d="M114.329,581.026H96.367
			c4.102,45.258,8.345,90.373,12.445,135.63c2.121,0.283,4.103,0.425,6.224,0.707C114.753,671.965,114.47,626.425,114.329,581.026z"
			/>
		
			<rect id="Erector_spinae_R" x="101.458" y="174.137" fill="#DCDCDC" stroke="#000000" stroke-miterlimit="10" width="26.022" height="209.314"/>
		<path id="Gluteus_R" fill="#DCDCDC" stroke="#000000" stroke-miterlimit="10" d="M66.667,395.896
			c10.041-1.131,20.932-1.84,32.527-2.265c10.184-0.282,19.801-0.282,28.993,0c1.272,4.243,4.667,18.244-2.403,33.521
			c-5.093,11.173-13.437,17.679-17.537,20.507c-13.012,3.395-26.164,6.789-39.176,10.184c-3.535-7.354-9.192-21.354-7.778-39.315
			C61.859,409.332,64.263,401.554,66.667,395.896z"/>
		<path id="Hip_flexors_R" fill="#DCDCDC" stroke="#000000" stroke-miterlimit="10" d="M124.087,353.186
			c-22.346,21.355-28.427,39.6-29.699,52.47c-1.697,17.537,4.667,31.68-6.082,44.975c-6.081,7.495-16.265,13.011-14.708,18.951
			c0.707,2.546,3.396,4.242,5.516,5.232c9.477-6.646,26.165-20.365,37.479-43.138C134.129,396.321,126.774,363.368,124.087,353.186z
			"/>
		<polygon id="Hamstrings_R" fill="#DCDCDC" stroke="#000000" stroke-miterlimit="10" points="73.456,454.448 127.905,454.448 
			117.864,552.316 88.165,552.316 		"/>
		<path id="Quadraceps_R" fill="#DCDCDC" stroke="#000000" stroke-miterlimit="10" d="M108.389,417.535
			c-7.778,23.192-15.558,46.247-23.336,69.439c5.092,20.648,10.183,41.155,15.134,61.807c7.776-27.862,15.558-55.864,23.335-83.728
			C118.571,449.073,113.479,433.233,108.389,417.535z"/>
		<path id="Wrist_extensors_R" fill="#DCDCDC" stroke="#000000" stroke-miterlimit="10" d="M26.219,294.209
			c0,0-12.021-1.838-12.021,0s-9.477,89.949-9.477,89.949l10.749-3.395L26.219,294.209z"/>
		<path id="Wrist_flexors_R" fill="#DCDCDC" stroke="#000000" stroke-miterlimit="10" d="M47.009,294.209H32.441l-11.88,84.15
			c0,0,18.952-38.893,18.952-42.004C39.372,333.244,47.009,294.209,47.009,294.209z"/>
		<polygon id="Triceps_R" fill="#DCDCDC" stroke="#000000" stroke-miterlimit="10" points="47.857,208.362 39.089,208.362 
			33.432,278.794 		"/>
		<path id="Biceps_R" fill="#DCDCDC" stroke="#000000" stroke-miterlimit="10" d="M21.834,205.816l-2.546,76.089
			c0,0,8.77,1.838,10.042,0c1.272-1.839,3.818-76.089,3.818-76.089H21.834L21.834,205.816z"/>
		<path id="Neck_extensors_R" fill="#DCDCDC" stroke="#000000" stroke-miterlimit="10" d="M130.027,112.898
			c-0.707,55.016-1.271,110.032-1.979,165.047c-9.192-17.537-19.94-36.206-32.528-55.723
			c-14.851-22.911-30.124-43.418-44.833-61.521c11.88-4.243,26.021-10.324,41.155-19.375
			C107.823,131.708,120.552,121.525,130.027,112.898z"/>
		<path id="Deltoid_R" fill="#DCDCDC" stroke="#000000" stroke-miterlimit="10" d="M86.892,145.002
			c0.707,2.404,4.667,17.537-4.95,31.539c-6.93,10.183-16.83,13.86-20.225,14.991c-6.93,1.556-15.557,2.688-25.739,2.688
			c-6.931,0-13.294-0.708-18.526-1.556c0.989-3.394,2.403-7.496,4.949-11.738c5.939-10.325,14.284-15.981,19.094-18.668
			C56.626,156.458,71.759,150.659,86.892,145.002z"/>
		<path id="Neck_flexors_R" fill="#DCDCDC" stroke="#000000" stroke-miterlimit="10" d="M109.096,95.361
			c5.374,17.113,10.89,34.084,16.265,51.197c-5.231,0.141-10.466,0.141-15.698,0.283c-1.131-9.051-2.263-18.103-3.396-27.154
			C107.257,111.625,108.106,103.422,109.096,95.361z"/>
	</g>
	<g id="left">
		<path id="Gastrocnemius_x2F_soleus_L" fill="#DCDCDC" stroke="#000000" stroke-miterlimit="10" d="M181.91,571.48h-40.023
			c0.99,48.51,2.121,96.879,3.111,145.391c5.375,0.424,10.606,0.707,15.84,1.131C167.909,669.066,174.839,620.273,181.91,571.48z"/>
		<path id="Tibialis_anterior_L" fill="#DCDCDC" stroke="#000000" stroke-miterlimit="10" d="M151.927,581.664h17.962
			c-4.102,45.258-8.345,90.373-12.445,135.629c-2.121,0.283-4.103,0.426-6.224,0.707
			C151.503,672.602,151.786,627.062,151.927,581.664z"/>
		
			<rect id="Erector_spinae_L" x="138.776" y="174.774" fill="#DCDCDC" stroke="#000000" stroke-miterlimit="10" width="26.022" height="209.314"/>
		<path id="Gluteus_L" fill="#DCDCDC" stroke="#000000" stroke-miterlimit="10" d="M199.589,396.533
			c-10.041-1.131-20.932-1.84-32.527-2.264c-10.184-0.283-19.801-0.283-28.993,0c-1.272,4.242-4.667,18.244,2.403,33.52
			c5.093,11.174,13.437,17.68,17.537,20.508c13.012,3.395,26.164,6.789,39.176,10.184c3.535-7.354,9.192-21.355,7.778-39.316
			C204.398,409.969,201.993,402.191,199.589,396.533z"/>
		<path id="Hip_flexors_L" fill="#DCDCDC" stroke="#000000" stroke-miterlimit="10" d="M142.169,353.823
			c22.346,21.355,28.427,39.601,29.699,52.47c1.697,17.537-4.667,31.68,6.082,44.975c6.081,7.496,16.265,13.012,14.708,18.951
			c-0.707,2.547-3.396,4.242-5.516,5.232c-9.477-6.646-26.165-20.365-37.479-43.137
			C132.127,396.959,139.483,364.005,142.169,353.823z"/>
		<polygon id="Hamstrings_L" fill="#DCDCDC" stroke="#000000" stroke-miterlimit="10" points="192.8,455.086 138.352,455.086 
			148.393,552.953 178.091,552.953 		"/>
		<path id="Quadraceps_L" fill="#DCDCDC" stroke="#000000" stroke-miterlimit="10" d="M157.867,418.172
			c7.778,23.193,15.558,46.248,23.336,69.439c-5.092,20.648-10.183,41.156-15.134,61.807c-7.776-27.861-15.558-55.863-23.335-83.727
			C147.686,449.711,152.778,433.871,157.867,418.172z"/>
		<path id="Wrist_extensors_L" fill="#DCDCDC" stroke="#000000" stroke-miterlimit="10" d="M240.037,294.846
			c0,0,12.021-1.838,12.021,0s9.477,89.949,9.477,89.949l-10.749-3.395L240.037,294.846z"/>
		<path id="Wrist_flexors_L" fill="#DCDCDC" stroke="#000000" stroke-miterlimit="10" d="M219.247,294.846h14.568l11.88,84.15
			c0,0-18.952-38.893-18.952-42.004C226.884,333.881,219.247,294.846,219.247,294.846z"/>
		<polygon id="Triceps_L" fill="#DCDCDC" stroke="#000000" stroke-miterlimit="10" points="218.4,208.999 227.167,208.999 
			232.824,279.431 		"/>
		<path id="Biceps_L" fill="#DCDCDC" stroke="#000000" stroke-miterlimit="10" d="M244.422,206.453l2.546,76.089
			c0,0-8.77,1.838-10.042,0c-1.272-1.839-3.818-76.089-3.818-76.089H244.422L244.422,206.453z"/>
		<path id="Neck_extensors_L" fill="#DCDCDC" stroke="#000000" stroke-miterlimit="10" d="M136.23,113.535
			c0.707,55.016,1.271,110.032,1.979,165.047c9.192-17.537,19.94-36.206,32.528-55.723c14.851-22.911,30.124-43.418,44.833-61.521
			c-11.88-4.243-26.021-10.324-41.155-19.375C158.433,132.345,145.704,122.162,136.23,113.535z"/>
		<path id="Deltoid_L" fill="#DCDCDC" stroke="#000000" stroke-miterlimit="10" d="M179.365,145.639
			c-0.707,2.404-4.667,17.537,4.95,31.539c6.93,10.183,16.83,13.86,20.225,14.991c6.93,1.556,15.557,2.688,25.739,2.688
			c6.931,0,13.294-0.708,18.526-1.556c-0.989-3.394-2.403-7.496-4.949-11.738c-5.939-10.325-14.284-15.981-19.094-18.668
			C209.63,157.095,194.497,151.296,179.365,145.639z"/>
		<path id="Neck_flexors_L" fill="#DCDCDC" stroke="#000000" stroke-miterlimit="10" d="M157.16,95.998
			c-5.374,17.113-10.89,34.084-16.265,51.197c5.231,0.141,10.466,0.141,15.698,0.283c1.131-9.051,2.263-18.103,3.396-27.154
			C158.999,112.262,158.151,104.059,157.16,95.998z"/>
	</g>
</g>
<g id="cmap" display="none">
	<rect id="c1_1_" x="96.632" y="446" display="inline" fill="#FEBD2A" width="67" height="67"/>
	<rect id="c2_1_" x="96.632" y="379" display="inline" fill="#F48849" width="67" height="67"/>
	<rect id="c3_1_" x="96.632" y="312" display="inline" fill="#DB5C68" width="67" height="67"/>
	<rect id="c4_1_" x="96.131" y="245" display="inline" fill="#B83289" width="67" height="67"/>
	<rect id="c5_1_" x="96.131" y="178" display="inline" fill="#8B0AA5" width="67" height="67"/>
	<rect id="c6_1_" x="96.131" y="111" display="inline" fill="#5302A3" width="67" height="67"/>
</g>
</svg>
