<?xml version="1.0" encoding="utf-8"?>
<!-- Generator: Adobe Illustrator 21.0.2, SVG Export Plug-In . SVG Version: 6.00 Build 0)  -->
<svg version="1.0" id="Layer_1" xmlns="http://www.w3.org/2000/svg" xmlns:xlink="http://www.w3.org/1999/xlink" x="0px" y="0px"
	 viewBox="0 0 267.3 759.5" enable-background="new 0 0 267.3 759.5" xml:space="preserve">
<g id="body">
	<path id="outline" fill="#EBEBEB" stroke="#000000" stroke-miterlimit="10" d="M135.4,2c18.1-0.8,35.2,11,39.9,28.9
		c0.7,6.4,1.4,12.7,2.1,19.1c1.1,0.3,2.5,0.7,4,1.8c4.5,3.4,4.1,9.5,4,11c-0.3,3-1.8,5.7-4.9,11c-4.8,8.5-7.5,9.5-8.8,9.8
		c-2.5,0.6-3.3-0.6-4.9,0c-5.7,2-4.5,17.3-4,25.9c0.6,7.5,0.9,11.3,2.5,14.8c3.1,6.5,8.3,10,16.3,15.4c1.7,1.3,7.9,5.4,18.9,10.2
		c6.4,2.7,12.3,4.7,22.2,8.1c3.5,1.1,17.1,6.2,24.9,20.1c5.2,9.5,5.4,18.4,5.1,22.5c0,15-0.1,18.1-0.1,18.1c0,6.2-0.4,12.7-1.1,19.5
		c0.3,5.5,0.7,13.6,1.6,23.2c0.3,4.4,1.7,20.2,4.8,43.3c2,15.4,1.8,13.4,3.8,26.3c2,12.7,3.5,26.7,4.2,42c0.7,13.6,0.6,26.3,0,38
		c0,3.4-0.1,6.9-0.6,10.7c-1,7.6-2.5,14.3-4.4,19.8c0,0-10.3,18.1-23.2,15.4c0,0-2.8,0-2.7-3.3l-4.1-1.8c0,0-0.9-5.2,2-7.9
		c2.7-2.7,6.1-4.1,6.1-4.1l4-4.2l1.3-5.8l0.4-9.8l-1.1-3.3l-3.1,2.1l-1.8,5.1l-3.4,7.4l-3.7,2.7l-7.5-1.1l1.3-12.2
		c0,0,8.6-12.9,8.5-13.3c-0.1-0.4-1.4-9.8,3.1-15.6l4.1-4.1l-4.2-18l-17.3-37.6l-7.2-39l0.1-22.6l-2.3-14.4c-2,3.7-4.1,8.5-5.8,14
		c-2,6.9-2.8,13.2-3.1,18.1c0.1,12.9,0.9,27.3,2.8,42.9c1.7,12.4,3.8,23.9,6.2,34.4c1.1,11.2,1.6,23.5,1.3,36.8
		c-0.9,30.8-6.2,57.3-12.4,78.4c-6.8,16.3-9.9,30.3-11.5,40.2c-2.1,14-2.1,25.3-2.1,35.4c0,12.4,0.7,11.7,1.7,38
		c0.6,16,0.9,23.2,0,31c-0.7,7.1-1.4,14-2.1,21.1l-7.4,17.8l-8.8,21.9l-3.1,10.3l-1.4,23.3l-1.6,4l9.2,12.7l3.3,5.2l8.5,4.5l4,4.5
		l-0.3,4.4l-5.4,3.1c0,0-5.1,2.4-5.7,2.4c-0.6,0-4.8-1.7-4.8-1.7l-9.1-0.1l-6.6,1l-4.9-2l-8.6,0.9c0,0-6.9,0.6-8.6-3.7l2.3-15.7
		l-2.3-19.8c1.6-13.6,3.3-27,4.8-40.4l-1.6-33.4l-3.3-13.9v-17.4l5.1-17.8l0.9-11.6c-1.3-7.8-2.5-15.4-3.8-23.2h-5.4
		c-1.3,7.8-2.5,15.4-3.8,23.2l0.9,11.6l5.1,17.8v17.4l-3.3,13.9l-1.6,33.4c1.6,13.4,3.3,26.9,4.8,40.4l-2.3,19.8l2.3,15.7
		c-1.7,4.2-8.6,3.7-8.6,3.7l-8.6-0.9l-4.9,2l-6.6-1l-9.1,0.1c0,0-4.2,1.7-4.8,1.7c-0.6,0-5.7-2.4-5.7-2.4l-5.4-3.1l-0.3-4.4l4-4.5
		l8.5-4.5l3.3-5.2l9.2-12.7l-1.6-4l-1.4-23.3L97.4,686l-8.8-21.9l-7.4-17.8c-0.7-7.1-1.4-14-2.1-21.1c-0.9-7.8-0.6-15,0-31
		c1-26.3,1.7-25.6,1.7-38c0-10,0-21.4-2.1-35.4c-1.6-9.9-4.7-23.9-11.5-40.2c-6.2-21.1-11.6-47.5-12.4-78.4
		c-0.3-13.3,0.1-25.6,1.3-36.8c2.4-10.5,4.5-21.9,6.2-34.4c2-15.6,2.7-30,2.8-42.9c-0.3-5-1.1-11.2-3.1-18.1
		c-1.7-5.5-3.8-10.3-5.8-14L54,270.6l0.1,22.6l-7.2,39l-17.3,37.6l-4.2,18l4.1,4.1c4.5,5.8,3.3,15.1,3.1,15.6
		c-0.1,0.4,8.5,13.3,8.5,13.3l1.3,12.2l-7.5,1.1l-3.7-2.7l-3.4-7.4l-1.8-5.1l-3.1-2.1l-1.1,3.3l0.4,9.8l1.3,5.8l4,4.2
		c0,0,3.4,1.4,6.1,4.1c2.8,2.7,2,7.9,2,7.9l-4.1,1.8c0.1,3.3-2.7,3.3-2.7,3.3c-12.9,2.7-23.2-15.4-23.2-15.4
		C3.6,436.1,2,429.5,1,421.8c-0.4-3.8-0.6-7.4-0.6-10.7c-0.6-11.7-0.7-24.5,0-38c0.7-15.3,2.3-29.3,4.2-42c2-12.9,1.8-10.9,3.8-26.3
		c3.1-23.1,4.5-38.9,4.8-43.3c0.8-9.6,1.3-17.7,1.6-23.2c-0.7-6.8-1.1-13.3-1.1-19.5c0,0-0.1-3.1-0.1-18.1c-0.3-4.1-0.1-13,5.1-22.5
		c7.8-13.9,21.4-19,24.9-20.1c9.9-3.4,15.8-5.4,22.2-8.1c11-4.8,17.3-8.9,19-10.2c7.9-5.4,13.2-8.9,16.3-15.4
		c1.7-3.5,2-7.4,2.5-14.8c0.6-8.6,1.7-23.9-4-25.9c-1.7-0.6-2.4,0.6-4.9,0c-1.3-0.3-4-1.3-8.8-9.8c-3.1-5.4-4.7-8.1-4.9-11
		c-0.1-1.6-0.6-7.6,4-11c1.4-1.1,2.8-1.6,4-1.8c0.7-6.4,1.4-12.7,2.1-19.1c4.7-17.8,21.8-29.7,39.9-28.9L135.4,2L135.4,2L135.4,2z"
		/>
	<g id="right">
		<path id="Gastrocnemius_x2F_soleus_R" fill="#EBEBEB" stroke="#000000" stroke-miterlimit="10" d="M84.3,570.8h40
			c-1,48.5-2.1,96.9-3.1,145.4c-5.4,0.4-10.6,0.7-15.8,1.1C98.3,668.4,91.4,619.6,84.3,570.8z"/>
		<path id="Tibialis_anterior_R" fill="#EBEBEB" stroke="#000000" stroke-miterlimit="10" d="M114.3,581h-18
			c4.1,45.3,8.3,90.4,12.4,135.6c2.1,0.3,4.1,0.4,6.2,0.7C114.8,672,114.5,626.4,114.3,581z"/>
		
			<rect id="Erector_spinae_R" x="101.5" y="174.1" fill="#EBEBEB" stroke="#000000" stroke-miterlimit="10" width="26" height="209.3"/>
		<path id="Gluteus_R" fill="#EBEBEB" stroke="#000000" stroke-miterlimit="10" d="M66.7,395.9c10-1.1,20.9-1.8,32.5-2.3
			c10.2-0.3,19.8-0.3,29,0c1.3,4.2,4.7,18.2-2.4,33.5c-5.1,11.2-13.4,17.7-17.5,20.5c-13,3.4-26.2,6.8-39.2,10.2
			c-3.5-7.4-9.2-21.4-7.8-39.3C61.9,409.3,64.3,401.6,66.7,395.9z"/>
		<path id="Hip_flexors_R" fill="#EBEBEB" stroke="#000000" stroke-miterlimit="10" d="M124.1,353.2c-22.3,21.4-28.4,39.6-29.7,52.5
			c-1.7,17.5,4.7,31.7-6.1,45c-6.1,7.5-16.3,13-14.7,19c0.7,2.5,3.4,4.2,5.5,5.2c9.5-6.6,26.2-20.4,37.5-43.1
			C134.1,396.3,126.8,363.4,124.1,353.2z"/>
		<polygon id="Hamstrings_R" fill="#EBEBEB" stroke="#000000" stroke-miterlimit="10" points="73.5,454.4 127.9,454.4 117.9,552.3 
			88.2,552.3 		"/>
		<path id="Quadriceps_R" fill="#EBEBEB" stroke="#000000" stroke-miterlimit="10" d="M108.4,417.5c-7.8,23.2-15.6,46.2-23.3,69.4
			c5.1,20.6,10.2,41.2,15.1,61.8c7.8-27.9,15.6-55.9,23.3-83.7C118.6,449.1,113.5,433.2,108.4,417.5z"/>
		<path id="Dorsal_interossei_R" fill="#EBEBEB" stroke="#000000" stroke-miterlimit="10" d="M4.1,407.5c0.4,4.6,0.9,4.2,2.7,14.3
			c0.5,2.7,1.1,5.4,2.3,10.7c0.8,3.6,1.5,6,3.6,7.3c0.2,0.1,2.4,1.4,3.8,0.4c1.5-1,1.1-3.9,0.5-9c-0.3-2.9-0.8-7.1-1.2-12.3
			c-0.5-3.4-0.9-7.3-0.9-11.5c0-2.7,0.1-5.3,0.3-7.6c-0.2-2.7-2-5-4.4-5.8c-3.4-1.2-6.3,1-6.4,1.2C3.7,400.4,3.8,404.6,4.1,407.5z"
			/>
		<path id="Thumb_abductors_R" fill="#EBEBEB" stroke="#000000" stroke-miterlimit="10" d="M18.8,401.1c0.3,1.8,1.8,10.8,5.5,11
			c1.1,0.1,2.7-0.6,5.1-4c0.2-2.2,0.2-4.9-0.4-7.9c-0.6-3-1.6-5.6-2.6-7.7c-0.2-0.2-1.3-1.2-3.5-1.3c-1.7-0.1-3.4,0.4-4.4,1.3
			C18.3,394.6,18.2,397.6,18.8,401.1z"/>
		<path id="Wrist_extensors_R" fill="#EBEBEB" stroke="#000000" stroke-miterlimit="10" d="M26.2,294.2c0,0-12-1.8-12,0
			s-9.5,89.9-9.5,89.9l10.7-3.4L26.2,294.2z"/>
		<path id="Wrist_flexors_R" fill="#EBEBEB" stroke="#000000" stroke-miterlimit="10" d="M47,294.2H32.4l-11.9,84.1
			c0,0,19-38.9,19-42C39.4,333.2,47,294.2,47,294.2z"/>
		<polygon id="Triceps_R" fill="#EBEBEB" stroke="#000000" stroke-miterlimit="10" points="47.9,208.4 39.1,208.4 33.4,278.8 		"/>
		<path id="Biceps_R" fill="#EBEBEB" stroke="#000000" stroke-miterlimit="10" d="M21.8,205.8l-2.5,76.1c0,0,8.8,1.8,10,0
			c1.3-1.8,3.8-76.1,3.8-76.1L21.8,205.8L21.8,205.8z"/>
		<path id="Neck_extensors_R" fill="#EBEBEB" stroke="#000000" stroke-miterlimit="10" d="M130,112.9c-0.7,55-1.3,110-2,165
			c-9.2-17.5-19.9-36.2-32.5-55.7c-14.9-22.9-30.1-43.4-44.8-61.5c11.9-4.2,26-10.3,41.2-19.4C107.8,131.7,120.6,121.5,130,112.9z"
			/>
		<path id="Deltoid_R" fill="#EBEBEB" stroke="#000000" stroke-miterlimit="10" d="M86.9,145c0.7,2.4,4.7,17.5-4.9,31.5
			c-6.9,10.2-16.8,13.9-20.2,15c-6.9,1.6-15.6,2.7-25.7,2.7c-6.9,0-13.3-0.7-18.5-1.6c1-3.4,2.4-7.5,4.9-11.7
			c5.9-10.3,14.3-16,19.1-18.7C56.6,156.5,71.8,150.7,86.9,145z"/>
		<path id="Neck_flexors_R" fill="#EBEBEB" stroke="#000000" stroke-miterlimit="10" d="M109.1,95.4c5.4,17.1,10.9,34.1,16.3,51.2
			c-5.2,0.1-10.5,0.1-15.7,0.3c-1.1-9.1-2.3-18.1-3.4-27.2C107.3,111.6,108.1,103.4,109.1,95.4z"/>
		<path id="Toe_extensors_R" fill="#EBEBEB" stroke="#000000" stroke-miterlimit="10" d="M98.7,747.2c0.6,1.9,5.8,3.1,24.9,0.8
			c-0.3-3.3-0.6-6.1-0.9-8.3c-0.4-3.4-0.6-5.1-1.2-7.3c-0.9-3.1-1.5-5.1-3.4-6.2c-1.9-1.1-4-0.6-4.3-0.5c-1.8,0.5-2.9,1.8-5.5,5.9
			c-3.2,5-3.7,6.1-5.9,9.4C99.2,745.8,98.4,746.3,98.7,747.2z"/>
	</g>
	<g id="left">
		<path id="n16_Toe_extensors_L" fill="#EBEBEB" stroke="#000000" stroke-miterlimit="10" d="M163.9,740.8c-2.1-3.3-2.6-4.4-5.9-9.4
			c-2.6-4-3.6-5.4-5.5-5.9c-0.2-0.1-2.3-0.6-4.3,0.5c-1.9,1.1-2.5,3.1-3.4,6.2c-0.6,2.2-0.9,3.9-1.2,7.3c-0.3,2.2-0.6,5-0.9,8.3
			c19.1,2.4,24.3,1.2,24.9-0.8C167.9,746.3,167.1,745.8,163.9,740.8z"/>
		<path id="n15_Gastrocnemius_x2F_soleus_L" fill="#EBEBEB" stroke="#000000" stroke-miterlimit="10" d="M181.9,571.5h-40
			c1,48.5,2.1,96.9,3.1,145.4c5.4,0.4,10.6,0.7,15.8,1.1C167.9,669.1,174.8,620.3,181.9,571.5z"/>
		<path id="n15_Tibialis_anterior_L" fill="#EBEBEB" stroke="#000000" stroke-miterlimit="10" d="M151.9,581.7h18
			c-4.1,45.3-8.3,90.4-12.4,135.6c-2.1,0.3-4.1,0.4-6.2,0.7C151.5,672.6,151.8,627.1,151.9,581.7z"/>
		<polygon id="n14_Hamstrings_L" fill="#EBEBEB" stroke="#000000" stroke-miterlimit="10" points="192.8,455.1 138.4,455.1 
			148.4,553 178.1,553 		"/>
		<path id="n13_Quadriceps_L" fill="#EBEBEB" stroke="#000000" stroke-miterlimit="10" d="M157.9,418.2
			c7.8,23.2,15.6,46.2,23.3,69.4c-5.1,20.6-10.2,41.2-15.1,61.8c-7.8-27.9-15.6-55.9-23.3-83.7C147.7,449.7,152.8,433.9,157.9,418.2
			z"/>
		<path id="n12_Gluteus_L" fill="#EBEBEB" stroke="#000000" stroke-miterlimit="10" d="M199.6,396.5c-10-1.1-20.9-1.8-32.5-2.3
			c-10.2-0.3-19.8-0.3-29,0c-1.3,4.2-4.7,18.2,2.4,33.5c5.1,11.2,13.4,17.7,17.5,20.5c13,3.4,26.2,6.8,39.2,10.2
			c3.5-7.4,9.2-21.4,7.8-39.3C204.4,410,202,402.2,199.6,396.5z"/>
		<path id="n11_Hip_flexors_L" fill="#EBEBEB" stroke="#000000" stroke-miterlimit="10" d="M142.2,353.8
			c22.3,21.4,28.4,39.6,29.7,52.5c1.7,17.5-4.7,31.7,6.1,45c6.1,7.5,16.3,13,14.7,19c-0.7,2.5-3.4,4.2-5.5,5.2
			c-9.5-6.6-26.2-20.4-37.5-43.1C132.1,397,139.5,364,142.2,353.8z"/>
		
			<rect id="n10_Erector_spinae_L" x="138.8" y="174.8" fill="#EBEBEB" stroke="#000000" stroke-miterlimit="10" width="26" height="209.3"/>
		<path id="n9_Thumb_abductors_L" fill="#EBEBEB" stroke="#000000" stroke-miterlimit="10" d="M247.6,392.6c-1-0.9-2.7-1.4-4.4-1.3
			c-2.1,0.1-3.3,1.2-3.5,1.3c-1,2.1-2,4.7-2.6,7.7c-0.6,3-0.6,5.7-0.4,7.9c2.4,3.4,4,4.1,5.1,4c3.7-0.2,5.2-9.2,5.5-11
			C248,397.6,247.8,394.6,247.6,392.6z"/>
		<path id="n8_Dorsal_interossei_L" fill="#EBEBEB" stroke="#000000" stroke-miterlimit="10" d="M262,395.1c-0.2-0.1-3-2.4-6.4-1.2
			c-2.5,0.9-4.2,3.2-4.4,5.8c0.2,2.3,0.3,4.9,0.3,7.6c0,4.3-0.4,8.1-0.9,11.5c-0.4,5.2-0.9,9.4-1.2,12.3c-0.6,5.1-1,8,0.5,9
			c1.4,0.9,3.6-0.3,3.8-0.4c2.2-1.3,2.8-3.8,3.6-7.3c1.2-5.3,1.9-8,2.3-10.7c1.7-10.1,2.3-9.7,2.7-14.3
			C262.6,404.6,262.7,400.4,262,395.1z"/>
		<path id="n7_Wrist_extensors_L" fill="#EBEBEB" stroke="#000000" stroke-miterlimit="10" d="M240,294.8c0,0,12-1.8,12,0
			s9.5,89.9,9.5,89.9l-10.7-3.4L240,294.8z"/>
		<path id="n6_Wrist_flexors_L" fill="#EBEBEB" stroke="#000000" stroke-miterlimit="10" d="M219.2,294.8h14.6l11.9,84.1
			c0,0-18.9-38.9-18.9-42C226.9,333.9,219.2,294.8,219.2,294.8z"/>
		<polygon id="n5_Triceps_L" fill="#EBEBEB" stroke="#000000" stroke-miterlimit="10" points="218.4,209 227.2,209 232.8,279.4 		
			"/>
		<path id="n4_Biceps_L" fill="#EBEBEB" stroke="#000000" stroke-miterlimit="10" d="M244.4,206.5l2.5,76.1c0,0-8.8,1.8-10,0
			c-1.3-1.8-3.8-76.1-3.8-76.1H244.4L244.4,206.5z"/>
		<path id="n3_Deltoid_L" fill="#EBEBEB" stroke="#000000" stroke-miterlimit="10" d="M179.4,145.6c-0.7,2.4-4.7,17.5,4.9,31.5
			c6.9,10.2,16.8,13.9,20.2,15c6.9,1.6,15.6,2.7,25.7,2.7c6.9,0,13.3-0.7,18.5-1.6c-1-3.4-2.4-7.5-4.9-11.7
			c-5.9-10.3-14.3-16-19.1-18.7C209.6,157.1,194.5,151.3,179.4,145.6z"/>
		<path id="n2_Neck_extensors_L" fill="#EBEBEB" stroke="#000000" stroke-miterlimit="10" d="M136.2,113.5c0.7,55,1.3,110,2,165
			c9.2-17.5,19.9-36.2,32.5-55.7c14.9-22.9,30.1-43.4,44.8-61.5c-11.9-4.2-26-10.3-41.2-19.4C158.4,132.3,145.7,122.2,136.2,113.5z"
			/>
		<path id="n1_Neck_flexors_L" fill="#EBEBEB" stroke="#000000" stroke-miterlimit="10" d="M157.2,96c-5.4,17.1-10.9,34.1-16.3,51.2
			c5.2,0.1,10.5,0.1,15.7,0.3c1.1-9.1,2.3-18.1,3.4-27.2C159,112.3,158.2,104.1,157.2,96z"/>
	</g>
</g>
<g id="cmap" display="none">
	<rect id="c1_1_" x="96.6" y="446" display="inline" fill="#FEBD2A" width="67" height="67"/>
	<rect id="c2_1_" x="96.6" y="379" display="inline" fill="#F48849" width="67" height="67"/>
	<rect id="c3_1_" x="96.6" y="312" display="inline" fill="#DB5C68" width="67" height="67"/>
	<rect id="c4_1_" x="96.1" y="245" display="inline" fill="#B83289" width="67" height="67"/>
	<rect id="c5_1_" x="96.1" y="178" display="inline" fill="#8B0AA5" width="67" height="67"/>
	<rect id="c6_1_" x="96.1" y="111" display="inline" fill="#5302A3" width="67" height="67"/>
</g>
</svg>
